<svg
   xmlns="http://www.w3.org/2000/svg"
   version="1.1"
   viewBox="0 0 100 100">
  <g>
    <circle
       r="45"
       cy="50"
       cx="50"
       style="stroke:#afb5bb;stroke-width:5;fill:#2c3e50" />
    <path
       d="m 29.261133,31.351074 -2.168359,8.652588 5.108154,0 2.189209,-8.652588 3.335938,0 -2.189209,8.652588 5.087304,0 0,3.21084 -5.85874,0 -1.751367,6.963769 5.212402,0 0,3.189991 -6.025537,0 L 30.032569,62 l -3.335938,0 2.189209,-8.631738 -5.129004,0 L 21.567627,62 l -3.315088,0 2.16836,-8.631738 -5.3792,0 0,-3.189991 6.192334,0 1.751368,-6.963769 -5.545997,0 0,-3.21084 6.317432,0 2.16836,-8.652588 3.335937,0 z m 2.168359,11.863428 -5.108154,0 -1.751367,6.963769 5.129004,0 1.730517,-6.963769 z"
       style="fill:#ffffff" />
    <path
       d="m 48.967773,17.738281 7.274414,0 -6.474609,33.28711 20.90918,-16.681641 9.178711,0 L 60.050781,50.416016 74.256836,77 66.144531,77 54.452148,54.833984 48.053711,59.899414 44.702148,77 37.427734,77 48.967773,17.738281 Z"
       style="fill:#ffffff" />
  </g>
</svg>
