<?xml version="1.0" encoding="UTF-8" standalone="no"?>
<svg
   xmlns:dc="http://purl.org/dc/elements/1.1/"
   xmlns:cc="http://creativecommons.org/ns#"
   xmlns:rdf="http://www.w3.org/1999/02/22-rdf-syntax-ns#"
   xmlns:svg="http://www.w3.org/2000/svg"
   xmlns="http://www.w3.org/2000/svg"
   xmlns:sodipodi="http://sodipodi.sourceforge.net/DTD/sodipodi-0.dtd"
   xmlns:inkscape="http://www.inkscape.org/namespaces/inkscape"
   viewBox="0 0 100 100"
   version="1.1"
   id="svg2"
   inkscape:version="0.91 r"
   sodipodi:docname="favicon.svg"
   inkscape:export-filename="/home/adam/Documents/PHP/Web/web/favicon.ico"
   inkscape:export-xdpi="90"
   inkscape:export-ydpi="90">
  <metadata
     id="metadata16">
    <rdf:RDF>
      <cc:Work
         rdf:about="">
        <dc:format>image/svg+xml</dc:format>
        <dc:type
           rdf:resource="http://purl.org/dc/dcmitype/StillImage" />
        <dc:title></dc:title>
      </cc:Work>
    </rdf:RDF>
  </metadata>
  <defs
     id="defs14" />
  <sodipodi:namedview
     pagecolor="#ffffff"
     bordercolor="#666666"
     borderopacity="1"
     objecttolerance="10"
     gridtolerance="10"
     guidetolerance="10"
     inkscape:pageopacity="0"
     inkscape:pageshadow="2"
     inkscape:window-width="1916"
     inkscape:window-height="1033"
     id="namedview12"
     showgrid="false"
     inkscape:zoom="2.36"
     inkscape:cx="29.802517"
     inkscape:cy="45.717358"
     inkscape:window-x="0"
     inkscape:window-y="22"
     inkscape:window-maximized="0"
     inkscape:current-layer="g4" />
  <g
     id="g4">
    <circle
       style="fill-opacity:1;stroke:#afb5bb;stroke-width:5;fill:#2c3e50"
       cx="50"
       cy="50"
       r="45"
       id="circle6" />
    <path
       style="fill:#ffffff"
       d="m 29.261133,31.351074 -2.168359,8.652588 5.108154,0 2.189209,-8.652588 3.335938,0 -2.189209,8.652588 5.087304,0 0,3.21084 -5.85874,0 -1.751367,6.963769 5.212402,0 0,3.189991 -6.025537,0 L 30.032569,62 l -3.335938,0 2.189209,-8.631738 -5.129004,0 L 21.567627,62 l -3.315088,0 2.16836,-8.631738 -5.3792,0 0,-3.189991 6.192334,0 1.751368,-6.963769 -5.545997,0 0,-3.21084 6.317432,0 2.16836,-8.652588 3.335937,0 z m 2.168359,11.863428 -5.108154,0 -1.751367,6.963769 5.129004,0 1.730517,-6.963769 z"
       id="path8" />
    <path
       style="fill:#ffffff"
       d="m 48.967773,17.738281 7.274414,0 -6.474609,33.28711 20.90918,-16.681641 9.178711,0 L 60.050781,50.416016 74.256836,77 66.144531,77 54.452148,54.833984 48.053711,59.899414 44.702148,77 37.427734,77 48.967773,17.738281 Z"
       id="path10" />
  </g>
</svg>
